<mxfile host="app.diagrams.net" agent="Mozilla/5.0 (Windows NT 10.0; Win64; x64) AppleWebKit/537.36 (KHTML, like Gecko) Chrome/130.0.0.0 Safari/537.36" version="24.7.17">
  <diagram id="Um8t9gkq_TS-AvPuS-Ug" name="Page-1">
    <mxGraphModel dx="1718" dy="1153" grid="1" gridSize="10" guides="1" tooltips="1" connect="1" arrows="1" fold="1" page="1" pageScale="1" pageWidth="827" pageHeight="1169" math="0" shadow="0">
      <root>
        <mxCell id="0" />
        <mxCell id="1" parent="0" />
        <mxCell id="Pn8fTQrSeP5vRvdxLiqo-3" style="edgeStyle=orthogonalEdgeStyle;rounded=0;orthogonalLoop=1;jettySize=auto;html=1;" parent="1" source="Pn8fTQrSeP5vRvdxLiqo-2" edge="1">
          <mxGeometry relative="1" as="geometry">
            <mxPoint x="196.99999999999977" y="110" as="targetPoint" />
          </mxGeometry>
        </mxCell>
        <mxCell id="Pn8fTQrSeP5vRvdxLiqo-2" value="Start" style="rounded=1;whiteSpace=wrap;html=1;fillColor=#d5e8d4;strokeColor=#82b366;" parent="1" vertex="1">
          <mxGeometry x="137" y="20" width="120" height="40" as="geometry" />
        </mxCell>
        <mxCell id="9BX_noeMv8iYdZEFTTPi-15" value="" style="edgeStyle=orthogonalEdgeStyle;rounded=0;orthogonalLoop=1;jettySize=auto;html=1;" parent="1" source="9BX_noeMv8iYdZEFTTPi-13" target="9BX_noeMv8iYdZEFTTPi-14" edge="1">
          <mxGeometry relative="1" as="geometry" />
        </mxCell>
        <mxCell id="9BX_noeMv8iYdZEFTTPi-13" value="Generate a random word" style="rounded=0;whiteSpace=wrap;html=1;" parent="1" vertex="1">
          <mxGeometry x="137" y="110" width="120" height="60" as="geometry" />
        </mxCell>
        <mxCell id="9BX_noeMv8iYdZEFTTPi-17" value="" style="edgeStyle=orthogonalEdgeStyle;rounded=0;orthogonalLoop=1;jettySize=auto;html=1;" parent="1" source="9BX_noeMv8iYdZEFTTPi-14" target="9BX_noeMv8iYdZEFTTPi-16" edge="1">
          <mxGeometry relative="1" as="geometry" />
        </mxCell>
        <mxCell id="9BX_noeMv8iYdZEFTTPi-14" value="Generate as many blanks as letters in word" style="rounded=0;whiteSpace=wrap;html=1;" parent="1" vertex="1">
          <mxGeometry x="137" y="220" width="120" height="60" as="geometry" />
        </mxCell>
        <mxCell id="9BX_noeMv8iYdZEFTTPi-19" value="" style="edgeStyle=orthogonalEdgeStyle;rounded=0;orthogonalLoop=1;jettySize=auto;html=1;" parent="1" source="9BX_noeMv8iYdZEFTTPi-16" target="9BX_noeMv8iYdZEFTTPi-18" edge="1">
          <mxGeometry relative="1" as="geometry" />
        </mxCell>
        <mxCell id="9BX_noeMv8iYdZEFTTPi-20" value="WRONG" style="edgeLabel;html=1;align=center;verticalAlign=middle;resizable=0;points=[];" parent="9BX_noeMv8iYdZEFTTPi-19" vertex="1" connectable="0">
          <mxGeometry x="-0.1375" y="-1" relative="1" as="geometry">
            <mxPoint as="offset" />
          </mxGeometry>
        </mxCell>
        <mxCell id="9BX_noeMv8iYdZEFTTPi-22" value="" style="edgeStyle=orthogonalEdgeStyle;rounded=0;orthogonalLoop=1;jettySize=auto;html=1;" parent="1" source="9BX_noeMv8iYdZEFTTPi-16" target="9BX_noeMv8iYdZEFTTPi-21" edge="1">
          <mxGeometry relative="1" as="geometry" />
        </mxCell>
        <mxCell id="9BX_noeMv8iYdZEFTTPi-23" value="RIGHT" style="edgeLabel;html=1;align=center;verticalAlign=middle;resizable=0;points=[];" parent="9BX_noeMv8iYdZEFTTPi-22" vertex="1" connectable="0">
          <mxGeometry x="-0.0917" y="-1" relative="1" as="geometry">
            <mxPoint as="offset" />
          </mxGeometry>
        </mxCell>
        <mxCell id="9BX_noeMv8iYdZEFTTPi-16" value="Ask user to guess a letter" style="rounded=0;whiteSpace=wrap;html=1;" parent="1" vertex="1">
          <mxGeometry x="137" y="330" width="120" height="60" as="geometry" />
        </mxCell>
        <mxCell id="9BX_noeMv8iYdZEFTTPi-30" value="" style="edgeStyle=orthogonalEdgeStyle;rounded=0;orthogonalLoop=1;jettySize=auto;html=1;" parent="1" source="9BX_noeMv8iYdZEFTTPi-18" target="9BX_noeMv8iYdZEFTTPi-29" edge="1">
          <mxGeometry relative="1" as="geometry" />
        </mxCell>
        <mxCell id="9BX_noeMv8iYdZEFTTPi-18" value="(3 lifes in total)&lt;br&gt;-1 life,&lt;br&gt;More of the hangman is drawn, prints it out" style="rounded=0;whiteSpace=wrap;html=1;" parent="1" vertex="1">
          <mxGeometry x="-63" y="330" width="120" height="60" as="geometry" />
        </mxCell>
        <mxCell id="9BX_noeMv8iYdZEFTTPi-25" value="" style="edgeStyle=orthogonalEdgeStyle;rounded=0;orthogonalLoop=1;jettySize=auto;html=1;" parent="1" source="9BX_noeMv8iYdZEFTTPi-21" target="9BX_noeMv8iYdZEFTTPi-24" edge="1">
          <mxGeometry relative="1" as="geometry" />
        </mxCell>
        <mxCell id="9BX_noeMv8iYdZEFTTPi-21" value="&quot;_&quot; is replaced with user&#39;s guess, at the right index of word" style="rounded=0;whiteSpace=wrap;html=1;" parent="1" vertex="1">
          <mxGeometry x="337" y="330" width="120" height="60" as="geometry" />
        </mxCell>
        <mxCell id="9BX_noeMv8iYdZEFTTPi-27" value="" style="edgeStyle=orthogonalEdgeStyle;rounded=0;orthogonalLoop=1;jettySize=auto;html=1;" parent="1" source="9BX_noeMv8iYdZEFTTPi-24" edge="1">
          <mxGeometry relative="1" as="geometry">
            <mxPoint x="250" y="580" as="targetPoint" />
            <Array as="points">
              <mxPoint x="250" y="500" />
            </Array>
          </mxGeometry>
        </mxCell>
        <mxCell id="9BX_noeMv8iYdZEFTTPi-28" value="YES" style="edgeLabel;html=1;align=center;verticalAlign=middle;resizable=0;points=[];" parent="9BX_noeMv8iYdZEFTTPi-27" vertex="1" connectable="0">
          <mxGeometry x="-0.2394" y="1" relative="1" as="geometry">
            <mxPoint as="offset" />
          </mxGeometry>
        </mxCell>
        <mxCell id="9BX_noeMv8iYdZEFTTPi-24" value="Are all the blanks filled?" style="rounded=0;whiteSpace=wrap;html=1;" parent="1" vertex="1">
          <mxGeometry x="337" y="470" width="120" height="60" as="geometry" />
        </mxCell>
        <mxCell id="9BX_noeMv8iYdZEFTTPi-26" value="Game Over" style="rounded=0;whiteSpace=wrap;html=1;" parent="1" vertex="1">
          <mxGeometry x="90" y="580" width="120" height="60" as="geometry" />
        </mxCell>
        <mxCell id="9BX_noeMv8iYdZEFTTPi-29" value="Has the user lost all 3 lifes?" style="rounded=0;whiteSpace=wrap;html=1;" parent="1" vertex="1">
          <mxGeometry x="-63" y="470" width="120" height="60" as="geometry" />
        </mxCell>
        <mxCell id="9BX_noeMv8iYdZEFTTPi-40" style="edgeStyle=orthogonalEdgeStyle;rounded=0;orthogonalLoop=1;jettySize=auto;html=1;entryX=0.438;entryY=0.053;entryDx=0;entryDy=0;entryPerimeter=0;" parent="1" target="9BX_noeMv8iYdZEFTTPi-26" edge="1">
          <mxGeometry relative="1" as="geometry">
            <mxPoint x="57" y="504" as="sourcePoint" />
            <mxPoint x="133.79999999999995" y="584.6599999999999" as="targetPoint" />
            <Array as="points">
              <mxPoint x="140" y="504" />
              <mxPoint x="140" y="570" />
              <mxPoint x="134" y="570" />
              <mxPoint x="134" y="583" />
            </Array>
          </mxGeometry>
        </mxCell>
        <mxCell id="9BX_noeMv8iYdZEFTTPi-41" value="YES" style="edgeLabel;html=1;align=center;verticalAlign=middle;resizable=0;points=[];" parent="9BX_noeMv8iYdZEFTTPi-40" vertex="1" connectable="0">
          <mxGeometry x="-0.4816" y="-2" relative="1" as="geometry">
            <mxPoint y="-1" as="offset" />
          </mxGeometry>
        </mxCell>
        <mxCell id="9BX_noeMv8iYdZEFTTPi-42" value="User wins!" style="rounded=0;whiteSpace=wrap;html=1;" parent="1" vertex="1">
          <mxGeometry x="230" y="580" width="120" height="60" as="geometry" />
        </mxCell>
      </root>
    </mxGraphModel>
  </diagram>
</mxfile>
